<svg xmlns="http://www.w3.org/2000/svg" width="1600" height="900" viewBox="0 0 1600 900" role="img" aria-label="Fondo abstracto">
  <defs>
    <linearGradient id="bg" x1="0" y1="0" x2="1" y2="1">
      <stop offset="0" stop-color="#0F3D5E" />
      <stop offset="0.55" stop-color="#1C8DB6" />
      <stop offset="1" stop-color="#0F3D5E" />
    </linearGradient>
    <radialGradient id="glow" cx="50%" cy="38%" r="60%">
      <stop offset="0" stop-color="#FFFFFF" stop-opacity="0.16" />
      <stop offset="1" stop-color="#FFFFFF" stop-opacity="0" />
    </radialGradient>
    <filter id="soft" x="-20%" y="-20%" width="140%" height="140%">
      <feGaussianBlur stdDeviation="18" />
    </filter>
  </defs>

  <rect width="1600" height="900" fill="url(#bg)" />
  <rect width="1600" height="900" fill="url(#glow)" />

  <!-- Formas suaves para textura (inspiración moderna, sin copiar contenido) -->
  <g filter="url(#soft)" opacity="0.9">
    <path d="M-60 720C140 540 360 460 620 520c280 64 360 240 620 230 210-8 330-130 460-250v430H-60Z" fill="#FFFFFF" opacity="0.10" />
    <path d="M1200 -80c140 70 240 190 250 350 12 190-110 310-290 350-210 46-360-80-390-250-30-168 100-346 430-450Z" fill="#F4A261" opacity="0.10" />
    <path d="M-120 120c160-60 340-40 470 70 150 130 120 340-20 460-170 150-430 70-510-140-70-180 20-330 60-390Z" fill="#FFFFFF" opacity="0.08" />
  </g>
</svg>
